<?xml version="1.0" encoding="UTF-8" standalone="no"?>
<!-- Created with Inkscape (http://www.inkscape.org/) -->

<svg
      xmlns="http://www.w3.org/2000/svg"
      width="210mm"
      height="297mm"
      version="1.1"
      viewBox="0 0 210 297"
      xmlSpace="preserve"
    >
      <g fill="#000">
        <g stroke="none" transform="matrix(.03528 0 0 -.03528 12.876 235.045)">
          <path d="M2146 4266c-123-46-184-204-121-315l25-43-317-549-318-549h-46c-89 0-176-66-207-159-24-68-8-147 39-205 20-24 146-102 416-257 363-210 390-223 445-227 102-8 186 43 224 134 18 43 18 135 0 179-15 34-14 36 43 132 32 54 77 131 100 171 28 48 47 72 56 68 8-3 107-63 222-134 454-281 1530-940 1563-957 175-90 382-39 455 110 55 112 18 266-87 367-54 51-71 61-928 522-967 522-980 529-980 539 0 4 41 79 92 167 69 122 96 160 111 160 78 0 185 81 206 156 23 84 8 161-42 217-21 23-157 108-392 243-198 114-373 214-390 223-41 21-122 24-169 7zm473-317c201-116 376-222 389-235 35-40 31-97-12-140-54-54-69-50-308 89-117 68-283 163-368 211-85 49-165 100-177 113-41 43-25 130 28 159 51 28 72 19 448-197zm-140-302c172-101 314-186 315-190 2-12-608-1066-617-1067-10 0-617 349-636 366-11 10 31 90 254 476 354 612 346 598 359 598 6-1 152-83 325-183zm611-891c1471-795 1433-774 1478-822 95-104 86-236-21-285-54-24-133-24-194-1-27 11-417 246-868 523-451 278-848 522-882 543-35 20-63 40-63 43 0 4 28 55 61 115 47 84 65 108 77 103 9-3 194-102 412-219zm-1303-283c336-194 377-220 390-251 36-86-57-178-138-137-129 66-719 413-741 436-32 34-36 74-12 120 18 35 68 61 103 53 13-3 192-102 398-221z"></path>
          <path d="M1080 1583c-126-44-217-144-250-276-11-42-15-46-57-57-192-48-313-214-313-427 0-82 14-124 55-163l36-35 1108-3 1108-2 34 23c59 39 71 76 66 202-5 127-21 178-75 250-68 89-197 165-282 165-24 0-28 5-39 55-26 115-127 224-245 266-52 18-86 19-578 19-449-1-529-3-568-17zm1125-121c77-36 125-90 149-169l7-23h-710c-391 0-711 2-711 5 0 15 34 83 56 112 31 41 98 81 155 93 24 4 260 8 524 7 478-2 480-2 530-25zm370-340c60-28 119-82 148-137 15-30 22-64 25-134 4-83 2-96-14-108-14-11-211-13-1070-13-974 0-1054 1-1069 17-28 27-17 172 18 239 41 80 115 137 200 154 23 4 418 7 877 6l835-1z"></path>
        </g>
        <path
          strokeWidth="2.073"
          d="M295.46 543.875c-21.667-12.578-39.738-23.188-40.158-23.578-1.07-.992 9.672-20.364 46.87-84.526 27.229-46.966 32.874-55.464 36.258-54.579 5.46 1.428 80.398 45.308 80.398 47.077 0 1.495-55.291 98.276-70.713 123.776-5 8.267-10.03 14.957-11.176 14.865-1.146-.092-19.811-10.458-41.479-23.035z"
          transform="scale(.26458)"
        ></path>
        <path
          strokeWidth="2.073"
          d="M625.566 682.823c-5.21-1.9-48.254-27.939-198.21-119.9-46.266-28.374-48.626-29.555-51.453-25.75-1.629 2.192-8.058 12.955-14.287 23.917-9.967 17.541-11.07 20.601-9.194 25.534 7.026 18.48-6.17 38.481-25.401 38.5-9.092.01-19.345-4.896-62.662-29.978-56.557-32.75-61.178-36.695-61.157-52.227.017-13.005 14.992-27.654 28.288-27.67 6.395-.008 7.371-1.473 49.174-73.85 42.065-72.833 42.607-73.924 39.608-79.724-9.667-18.693 3.988-42.025 24.596-42.025 7.039 0 14.249 3.203 38.713 17.197 53.157 30.407 74.368 43.658 78.7 49.165 5.1 6.484 5.673 20.911 1.176 29.609-3.26 6.304-13.244 13.284-21.903 15.311-3.813.893-7.906 5.68-14.852 17.372-15.43 25.977-15.93 27.528-10.138 31.47 2.69 1.831 56.318 31.188 119.17 65.237 62.854 34.049 117.975 64.383 122.491 67.41 13.387 8.97 20.487 20.93 21.42 36.08.672 10.911.04 14.042-4.068 20.173-9.308 13.89-32.632 20.488-50.01 14.149zm25.813-12.076c2.275 0 6.98-2.844 10.456-6.32 5.62-5.62 6.204-7.338 5.28-15.536-1.558-13.823-8.6-21.193-33.93-35.51-24.056-13.596-177.602-96.845-209.707-113.696-21.962-11.528-19.756-12.2-31.512 9.609-4.877 9.049-5.712 12.144-3.711 13.757 2.952 2.38 159.222 98.377 207.125 127.238 29.488 17.767 42.148 23.246 49.1 21.25 1.52-.435 4.624-.792 6.899-.792zm-315.487-62.202c6.724-6.725 5.549-17.393-2.592-23.527-10.788-8.129-97.817-57.336-101.405-57.336-6.686 0-14.187 8.245-14.187 15.596 0 8.595 2.494 10.584 43.541 34.724 62.118 36.533 66.755 38.43 74.643 30.543zm18.966-62.72c8.238-13.97 26.961-46.347 41.607-71.95l26.628-46.55-10.944-6.943c-28.194-17.884-76.76-44.382-78.36-42.753-1.978 2.014-40.165 67.206-65.254 111.401-12.136 21.378-15.803 29.54-14.326 31.881 1.552 2.462 82.43 50.313 85.038 50.313.348 0 7.373-11.43 15.611-25.4zm94.134-133.52c10.789-11.642 6.899-17.543-23.377-35.459-58.328-34.517-77.728-44.603-83.993-43.667-6.898 1.031-12.636 10.422-10.978 17.97 1.54 7.014 5.502 9.677 65.195 43.815 30.858 17.648 40.75 22.607 45.377 22.746 1.48.045 4.98-2.387 7.776-5.405z"
          transform="scale(.26458)"
        ></path>
        <path
          strokeWidth="2.073"
          d="M625.028 682.511c-6.842-2.633-25.4-13.819-155.95-93.992-47.056-28.899-87.23-52.543-89.277-52.543-2.53 0-7.558 6.635-15.723 20.75-11.906 20.583-11.991 20.848-10.581 32.994 3.457 29.791-18.158 43.566-46.174 29.424-14.34-7.24-69.434-39.043-85.973-49.629-17.71-11.336-22.636-25.13-14.02-39.26 4.912-8.058 15.553-14.995 23.015-15.006 2.96-.004 6.824-1.64 8.588-3.636 1.763-1.996 21.143-34.658 43.065-72.584 34.175-59.125 39.648-69.766 38.384-74.643-.81-3.127-1.89-9.885-2.4-15.017-1.624-16.364 10.458-29.719 26.886-29.719 7.039 0 14.249 3.203 38.713 17.197 53.157 30.407 74.368 43.658 78.7 49.165 5.1 6.484 5.673 20.911 1.176 29.609-3.226 6.238-14.893 14.61-20.36 14.61-4.572 0-13.561 11.66-23.232 30.13l-8.294 15.84 4.998 3.452c2.749 1.898 56.398 31.308 119.22 65.356 62.824 34.047 117.92 64.382 122.436 67.41 13.388 8.975 20.487 20.934 21.42 36.082.672 10.911.04 14.042-4.068 20.173-9.476 14.139-33.02 20.584-50.549 13.837zm33.89-15.235c9.801-6.11 11.002-21.908 2.565-33.757-2.383-3.347-9.672-9.307-16.196-13.242-11.952-7.21-121.835-67.048-198.24-107.953-47.033-25.18-43.459-24.967-55.027-3.264l-6.528 12.248 8.893 5.614c40.826 25.776 203.894 125.352 220.33 134.544 20.551 11.492 32.556 13.07 44.202 5.81zm-323.026-58.731c5.213-5.213 5.497-16.84.518-21.183-8.682-7.574-100.3-59.68-104.935-59.68-1.563 0-5.35 1.973-8.415 4.385-4.522 3.556-5.455 5.8-4.945 11.88.548 6.525 2.11 8.475 12.056 15.042 24.473 16.161 92.068 53.703 96.694 53.703 2.684 0 6.746-1.866 9.027-4.147zm37.827-95.377c17.609-30.22 35.894-62.021 40.635-70.67l8.618-15.725-26.434-15.757c-14.54-8.667-34.538-20.062-44.44-25.322l-18.007-9.565-14.395 24.46c-28.414 48.279-64.209 111.626-65.521 115.954-1.1 3.626.425 5.531 8.57 10.71 24.581 15.627 76.14 43.87 77.478 42.442.814-.87 15.887-26.307 33.496-56.527zm73.72-99.58c5.589-5.207 7.66-12.817 4.896-17.982-3.591-6.711-100.273-62.689-108.438-62.784-5.009-.059-11.79 6.429-13.27 12.697-.999 4.232.043 6.919 4.577 11.801 8.251 8.884 97.986 60.27 105.522 60.426 1.21.025 4.232-1.846 6.714-4.159z"
          transform="scale(.26458)"
        ></path>
        <path
          strokeWidth="2.073"
          d="M635.05 668.686c-3.67-.844-24.196-12.115-45.616-25.048-60.288-36.4-196.315-120.171-198.302-122.121-2.424-2.38 10.938-27.01 14.654-27.01 1.631 0 23.194 10.863 47.917 24.14 78.42 42.111 185.127 100.352 193.195 105.445 19.54 12.336 24.254 32.2 9.78 41.225-6.43 4.01-13.83 5.162-21.629 3.369z"
          transform="scale(.26458)"
        ></path>
        <path
          strokeWidth="2.073"
          d="M625.257 682.72c-3.353-1.218-41.14-23.679-83.973-49.913-160.106-98.065-159.756-97.86-163.505-95.495-1.91 1.204-8.414 10.493-14.456 20.642-10.823 18.183-10.966 18.639-9.74 31.15 1.547 15.792-2.245 25.963-11.864 31.828-14.144 8.623-21.744 6.235-72.176-22.68-59.59-34.164-66.362-39.812-66.341-55.333.016-12.452 14.927-27.652 27.143-27.67 2.96-.004 6.809-1.64 8.555-3.636 3.44-3.933 58.442-98.466 73.736-126.73 8.652-15.992 9.203-17.882 6.994-23.992-7.558-20.9 4.89-41.24 25.238-41.24 7.039 0 14.249 3.202 38.713 17.196 53.157 30.407 74.368 43.658 78.7 49.165 5.1 6.484 5.673 20.911 1.176 29.609-3.17 6.131-14.865 14.61-20.15 14.61-1.662 0-4.934 2.1-7.27 4.666-5.098 5.598-23.43 37.3-23.43 40.518 0 2.703 12.919 9.984 129.589 73.048 111.95 60.511 119.927 65.119 126.73 73.187 12.176 14.439 14.925 34.511 6.47 47.235-9.156 13.778-32.534 20.228-50.14 13.835zm36.179-17.174c9.756-8.83 6.084-29.104-7.069-39.024-12.419-9.366-236.52-131.107-245.563-133.399-5.87-1.487-8.207.775-16.849 16.305l-6.572 11.811 7.91 4.988c44.596 28.119 218.165 133.86 228.911 139.456 14.195 7.392 30.977 7.334 39.232-.137zM335.5 608.464c5.599-5.216 6.088-16.576.91-21.123-8.777-7.707-101.093-59.659-106.011-59.659-1.383 0-4.804 2.29-7.603 5.09-6.018 6.017-6.717 15.678-1.46 20.189 10.944 9.392 99.664 59.673 105.352 59.706 2.35.014 6.316-1.878 8.812-4.203zm26.914-76.117c12.5-21.382 31.226-53.728 41.613-71.88l18.885-33.005-6.707-4.498c-9.837-6.597-58.882-34.888-71.371-41.169l-10.755-5.409-7.12 11.89c-30.784 51.403-74.004 128.465-74.004 131.95 0 1.502 83.488 50.762 86.389 50.973.188.013 10.57-17.47 23.07-38.852zm86.293-120.935c6.394-7.598 6.793-12.93 1.374-18.35-8.456-8.454-99.895-60.28-106.358-60.28-4.957 0-11.65 6.613-13.164 13.008-1.133 4.783-.16 6.879 5.779 12.44 6.094 5.708 90.028 54.963 99.076 58.142 5.994 2.105 7.968 1.368 13.293-4.96z"
          transform="scale(.26458)"
        ></path>
        <path
          strokeWidth="2.073"
          d="M416.755 403.702c-39.197-21.587-75.028-42.842-80.066-47.495-6.093-5.628-6.198-8.832-.524-16.045 3.52-4.475 5.525-5.348 9.849-4.287 8.839 2.17 93.192 50.463 102.36 58.603 1.996 1.772 3.629 4.986 3.629 7.142 0 3.859-8.61 14.11-11.828 14.085-.907-.007-11.446-5.41-23.42-12.003z"
          transform="scale(.26458)"
        ></path>
        <path
          strokeWidth="2.073"
          d="M286.13 589.573c-52.933-30.493-65.179-38.966-65.95-45.63-.646-5.589 6.079-14.188 11.097-14.188 3.089 0 90.402 49.991 99.7 57.084 5.096 3.886 6.988 6.953 6.988 11.327 0 6.217-6.302 12.518-12.383 12.38-1.742-.039-19.495-9.477-39.452-20.973z"
          transform="scale(.26458)"
        ></path>
        <path
          strokeWidth="2.073"
          d="M201.81 803.493c-44.666-.597-81.597-1.551-82.07-2.121-9.608-11.607-10.788-31.803-2.854-48.84 5.725-12.296 19.09-24.502 31.125-28.426 7.47-2.436 9.305-4.368 14.751-15.528 7.498-15.363 13.436-21.923 24.843-27.446 8.11-3.926 12.736-4.165 80.586-4.165 79.99 0 80.95.14 94.95 13.781 6.687 6.516 11.428 14.76 14.991 26.07.618 1.962 3.73 4.119 6.915 4.792 10.118 2.141 18.83 6.808 27.794 14.89 12.29 11.082 16.253 20.965 16.309 40.669.042 15.2-.339 16.612-6.016 22.289l-6.06 6.06-67.027-.47c-36.865-.26-103.572-.96-148.238-1.555zm214.103-17.71c.72-2.871.66-10.418-.133-16.771-1.152-9.223-2.944-13.213-8.89-19.794-13.512-14.956-6.278-14.195-135.036-14.195-76.974 0-118.045.743-121.915 2.205-7.072 2.672-16.597 11.404-20.422 18.723-4.185 8.008-5.998 25.378-3.195 30.616l2.375 4.438h285.905zm-51.808-68.554c-.693-1.804-1.259-4.104-1.259-5.111 0-3.715-13.62-17.195-20.117-19.909-5.165-2.158-22.208-2.801-74.239-2.801-62.18 0-68.145.311-75.227 3.926-8.792 4.487-13.039 8.837-17.793 18.227-3.336 6.589-3.331 6.604 2.342 7.464 3.126.475 46.605 1.002 96.618 1.173 82.147.28 90.812-.006 89.675-2.969z"
          transform="scale(.26458)"
        ></path>
        <path
          strokeWidth="2.073"
          d="M176.24 715.798c0-4.634 12.927-18.512 19.994-21.464 5.307-2.218 21.463-2.853 72.588-2.853 62.274 0 66.23.228 74.63 4.294 8.162 3.951 17.32 14.692 17.32 20.313 0 1.712-24.966 2.347-92.266 2.347-73.288 0-92.266-.542-92.266-2.637z"
          transform="scale(.26458)"
        ></path>
        <path
          strokeWidth="2.073"
          d="M160.776 789.579c-32.77-.807-34.217-1.272-34.255-11.015-.064-16.412 12.774-35.457 26.62-39.49 5.034-1.465 45.59-1.988 121.764-1.57l114.217.629 8.158 5.655c4.487 3.11 9.777 8.396 11.756 11.746 4.005 6.78 7.2 30.135 4.356 31.846-2.318 1.395-211.36 3.214-252.616 2.199z"
          transform="scale(.26458)"
        ></path>
      </g>
    </svg>