<?xml version="1.0" standalone="no"?>
<!DOCTYPE svg PUBLIC "-//W3C//DTD SVG 20010904//EN"
 "http://www.w3.org/TR/2001/REC-SVG-20010904/DTD/svg10.dtd">
<svg version="1.0" xmlns="http://www.w3.org/2000/svg"
 width="517.000000pt" height="482.000000pt" viewBox="0 0 517.000000 482.000000"
 preserveAspectRatio="xMidYMid meet">

<g transform="translate(0.000000,482.000000) scale(0.100000,-0.100000)"
fill="#000000" stroke="none">
<path d="M2146 4266 c-123 -46 -184 -204 -121 -315 l25 -43 -317 -549 -318
-549 -46 0 c-89 0 -176 -66 -207 -159 -24 -68 -8 -147 39 -205 20 -24 146
-102 416 -257 363 -210 390 -223 445 -227 102 -8 186 43 224 134 18 43 18 135
0 179 -15 34 -14 36 43 132 32 54 77 131 100 171 28 48 47 72 56 68 8 -3 107
-63 222 -134 454 -281 1530 -940 1563 -957 175 -90 382 -39 455 110 55 112 18
266 -87 367 -54 51 -71 61 -928 522 -967 522 -980 529 -980 539 0 4 41 79 92
167 69 122 96 160 111 160 78 0 185 81 206 156 23 84 8 161 -42 217 -21 23
-157 108 -392 243 -198 114 -373 214 -390 223 -41 21 -122 24 -169 7z m473
-317 c201 -116 376 -222 389 -235 35 -40 31 -97 -12 -140 -54 -54 -69 -50
-308 89 -117 68 -283 163 -368 211 -85 49 -165 100 -177 113 -41 43 -25 130
28 159 51 28 72 19 448 -197z m-140 -302 c172 -101 314 -186 315 -190 2 -12
-608 -1066 -617 -1067 -10 0 -617 349 -636 366 -11 10 31 90 254 476 354 612
346 598 359 598 6 -1 152 -83 325 -183z m611 -891 c1471 -795 1433 -774 1478
-822 95 -104 86 -236 -21 -285 -54 -24 -133 -24 -194 -1 -27 11 -417 246 -868
523 -451 278 -848 522 -882 543 -35 20 -63 40 -63 43 0 4 28 55 61 115 47 84
65 108 77 103 9 -3 194 -102 412 -219z m-1303 -283 c336 -194 377 -220 390
-251 36 -86 -57 -178 -138 -137 -129 66 -719 413 -741 436 -32 34 -36 74 -12
120 18 35 68 61 103 53 13 -3 192 -102 398 -221z"/>
<path d="M1080 1583 c-126 -44 -217 -144 -250 -276 -11 -42 -15 -46 -57 -57
-192 -48 -313 -214 -313 -427 0 -82 14 -124 55 -163 l36 -35 1108 -3 1108 -2
34 23 c59 39 71 76 66 202 -5 127 -21 178 -75 250 -68 89 -197 165 -282 165
-24 0 -28 5 -39 55 -26 115 -127 224 -245 266 -52 18 -86 19 -578 19 -449 -1
-529 -3 -568 -17z m1125 -121 c77 -36 125 -90 149 -169 l7 -23 -710 0 c-391 0
-711 2 -711 5 0 15 34 83 56 112 31 41 98 81 155 93 24 4 260 8 524 7 478 -2
480 -2 530 -25z m370 -340 c60 -28 119 -82 148 -137 15 -30 22 -64 25 -134 4
-83 2 -96 -14 -108 -14 -11 -211 -13 -1070 -13 -974 0 -1054 1 -1069 17 -28
27 -17 172 18 239 41 80 115 137 200 154 23 4 418 7 877 6 l835 -1 50 -23z"/>
</g>
</svg>
